<?xml version="1.0" encoding="UTF-8" standalone="no"?>
<svg
   id="Capa_2"
   data-name="Capa 2"
   viewBox="0 0 209.01 209.01"
   version="1.1"
   sodipodi:docname="logo-svg.svg"
   inkscape:version="1.3.2 (091e20e, 2023-11-25)"
   xmlns:inkscape="http://www.inkscape.org/namespaces/inkscape"
   xmlns:sodipodi="http://sodipodi.sourceforge.net/DTD/sodipodi-0.dtd"
   xmlns="http://www.w3.org/2000/svg"
   xmlns:svg="http://www.w3.org/2000/svg">
  <sodipodi:namedview
     id="namedview10"
     pagecolor="#ffffff"
     bordercolor="#000000"
     borderopacity="0.25"
     inkscape:showpageshadow="2"
     inkscape:pageopacity="0.0"
     inkscape:pagecheckerboard="0"
     inkscape:deskcolor="#d1d1d1"
     inkscape:zoom="1.1291326"
     inkscape:cx="104.505"
     inkscape:cy="104.505"
     inkscape:window-width="1512"
     inkscape:window-height="449"
     inkscape:window-x="0"
     inkscape:window-y="38"
     inkscape:window-maximized="0"
     inkscape:current-layer="Capa_1-2" />
  <defs
     id="defs1">
    <style
       id="style1">
      .cls-1 {
        fill: #0080a8;
      }

      .cls-1, .cls-2 {
        stroke-width: 0px;
      }

      .cls-2 {
        fill: #ffb42e;
      }
    </style>
  </defs>
  <g
     id="Capa_1-2"
     data-name="Capa 1"
     style="stroke:#000000;stroke-opacity:1">
    <g
       id="g10"
       style="stroke:#000000;stroke-opacity:1">
      <path
         class="cls-1"
         d="M 104.51,0 C 46.79,0 0,46.79 0,104.51 c 0,57.72 46.79,104.51 104.51,104.51 57.72,0 104.51,-46.79 104.51,-104.51 C 209.02,46.79 162.22,0 104.51,0 Z m 0,199.01 C 52.31,199.01 10,156.7 10,104.5 10,83.721987 16.70363,64.512537 28.066266,48.915015 45.249652,25.327335 73.088013,10 104.51,10 c 52.2,0 94.51,42.31 94.51,94.51 0,52.2 -42.31,94.51 -94.51,94.51 z"
         id="path1"
         style="stroke:#000000;stroke-opacity:1;fill:#000000;fill-opacity:0"
         sodipodi:nodetypes="ssssscsssscc" />
      <g
         id="g9"
         style="stroke:#000000;stroke-opacity:1">
        <path
           class="cls-1"
           d="M142.79,113s.43,1.98.12,3.62.2,5.29.2,5.29l4.87-8.45s-1.34-3.49-2.2-3.96-2.98,1.52-2.98,1.52v1.98Z"
           id="path2"
           style="stroke:#000000;stroke-opacity:1" />
        <path
           class="cls-1"
           d="M144.08,117.82c-.17.12-.41-.02-.39-.23.49-4.64-.17-8.99-1.98-13.07-1.71-3.86-3.94-7.38-6.69-10.57-2.33-2.74-4.83-5.27-7.51-7.61l-6.97-5.64-6.81-6.34-3.95-4.55c-4.96-6.17-8.7-14.17-6.42-22.05,1.7-5.87,6.76-10.65,12.43-12.7.67-.24,1.35-.49,2.02-.73-.05.18-.1.37-.16.55.01-.04.27-.11.32-.12.11-.04.22-.09.33-.13.22-.08.44-.16.67-.24.44-.16.89-.31,1.34-.45.9-.28,1.82-.52,2.74-.73s1.85-.37,2.79-.5,1.88-.22,2.82-.28,1.89-.07,2.83-.05c.94.02,1.89.07,2.82.18l1.47.18.74.09c.12.01.24.03.36.04.1.01.21.05.32.04-.03-.07-.19-.14-.25-.18-.1-.06-.19-.12-.29-.18-.2-.11-.4-.22-.6-.32-.41-.19-.83-.35-1.27-.48-.12-.04-.25-.06-.38-.09s-.27-.1-.39-.1c-.46-.12-.93-.24-1.39-.36-.92-.23-1.85-.42-2.79-.58s-1.89-.26-2.84-.31c-.49-.03-.98-.04-1.46-.03-3.42.05-6.82.7-10.05,1.84-2.42.86-4.74,1.99-6.88,3.4-5.89,3.88-9.74,9.22-11.55,15.99-3.47,12.95,2.26,27.47,8.93,38.57,2.5,4.17,5.41,8.25,7.79,12.01,4.92,7.75,9.62,15.62,14.1,23.62l6.04,11.03c.1.2.39.21.51.01l4.22-7.25,6.65-11.36c-.15-.23-.3-.29-.46-.19-.09.06-.2.05-.28,0l-.03.04c-.15-.23-.3-.29-.46-.19Z"
           id="path3"
           style="stroke:#000000;stroke-opacity:1" />
        <path
           class="cls-1"
           d="M181.62,51.46h-23.35c-.4,0-.77.22-.96.57l-13.84,25.66c-.06.12-.05.25.02.36,3.86,5.43,11.47,8.25,17.71,9.93.14.04.3-.03.38-.16l20.66-35.29c.28-.48-.06-1.07-.62-1.07Z"
           id="path4"
           style="stroke:#000000;stroke-opacity:1" />
        <path
           class="cls-1"
           d="M127.22,141.41s-.01-.03-.01-.04v-.02l-6.43-10.9s.02,0,.03,0c.01,0,.02-.01.01-.03l-3.35-5.67-36.34-62.09c-.85-1.45-2.94-1.45-3.78,0l-29.52,50.47c.74-1.09,1.54-2.13,2.42-3.09,1.33-1.44,2.95-2.85,4.5-4.06,3.42-2.81,7.32-4.72,11.64-5.37.05,0,.09-.01.14-.02.02,0,.04,0,.06,0,3.55-.39,6.91-.03,10.08,1.09,1.67.59,3.05,1.79,3.94,3.32l11.41,19.56,11.67,19.79,2.72,4.62h25.22l-2.05-3.5-2.37-4.07Z"
           id="path5"
           style="stroke:#000000;stroke-opacity:1" />
        <g
           id="g8"
           style="stroke:#000000;stroke-opacity:1">
          <path
             class="cls-2"
             d="M157.67,96.37c-5.9-2.81-11.7-5.81-17.41-9.04-7.2-4.31-14.25-8.71-20.72-14.1-3.87-3.22-7.49-6.62-10.38-10.77-1.04-1.51-2.12-3.12-2.87-4.81-.72-1.6-1.04-3.53-1.1-5.28-.3-9.32,7.78-16.48,16.3-18.77.17-.05.64-.17.82-.21-2.16.02-4.47.79-6.47,1.58-2.07.81-4.03,1.91-5.8,3.25-1.87,1.41-3.68,3.07-4.86,5.11-1.18,2.02-1.96,4.28-2.29,6.6-.68,4.71.19,9.43,2.2,13.72,1.26,2.7,2.89,5.21,4.74,7.54l3.98,4.65,6.87,6.48,7.03,5.76c2.7,2.39,5.22,4.98,7.57,7.78,2.77,3.26,5.02,6.86,6.75,10.8,1.83,4.17,2.59,8.24,2.09,12.98,0,.1-.07.54-.07.66l13.71-23.6c.07-.11.02-.27-.1-.32Z"
             id="path6"
             style="stroke:#000000;stroke-opacity:1" />
          <path
             class="cls-2"
             d="M66.59,100.6s-.04,0-.06,0c-.05,0-.09.01-.14.02-4.32.65-8.22,2.56-11.64,5.37-1.55,1.22-3.17,2.62-4.5,4.06-.88.95-1.68,2-2.42,3.09-1.3,1.91-2.44,3.95-3.59,5.9-2,3.41-4,6.82-6,10.23-3.86,6.57-7.71,13.14-11.57,19.71h25.5l.7-1.14,3.26-5.61,9.85-16.72.69-1.17,7.23-12.24c3.18-5.38-1.1-12.14-7.3-11.5Z"
             id="path7"
             style="stroke:#000000;stroke-opacity:1" />
          <path
             class="cls-2"
             d="M133.28,69.73c6.74,0,12.2-5.46,12.2-12.2s-5.46-12.2-12.2-12.2-12.2,5.46-12.2,12.2,5.46,12.2,12.2,12.2Z"
             id="path8"
             style="stroke:#000000;stroke-opacity:1" />
        </g>
      </g>
    </g>
  </g>
</svg>
